<svg viewBox="0 0 31 31" xmlns="http://www.w3.org/2000/svg"><path d="M28.7947 8.06723H18.611C21.2546 7.37729 22.99 6.38461 23.768 5.12088C24.3206 4.21972 24.384 3.17776 23.9475 2.1006C23.6483 1.36137 23.2153 0.805186 22.6591 0.446132C22.1206 0.0976384 21.4975 -0.0466874 20.8075 0.013155C19.4734 0.125799 17.9668 1.034 16.6679 2.50189C15.8265 3.45233 15.1296 4.57174 14.6227 5.76506C14.1158 4.57174 13.4153 3.45233 12.5775 2.50189C11.2785 1.034 9.76839 0.125799 8.43425 0.013155C7.74431 -0.0466874 7.12124 0.101158 6.58266 0.446132C6.02648 0.805186 5.5935 1.36137 5.29429 2.1006C4.85779 3.17424 4.92115 4.21972 5.47382 5.12088C6.25177 6.38461 7.98368 7.37729 10.6308 8.06723H1.26725C0.566742 8.06723 0 8.63398 0 9.33448V11.6578C0 12.3583 0.566742 12.925 1.26725 12.925H12.8837V8.17988H17.1783V12.9215H28.7947C29.4952 12.9215 30.062 12.3548 30.062 11.6543V9.33096C30.062 8.63398 29.4952 8.06723 28.7947 8.06723ZM11.1307 6.74014C8.80035 6.14876 7.25853 5.33561 6.67418 4.38165C6.35033 3.85715 6.32921 3.29745 6.60026 2.62862C6.93467 1.80843 7.44157 1.40713 8.1456 1.40713C8.20192 1.40713 8.25825 1.41065 8.31457 1.41417C9.27557 1.49513 10.4724 2.25196 11.5179 3.43473C12.4719 4.51541 13.2181 5.83899 13.6687 7.24C13.0104 7.14144 12.0917 6.98655 11.1307 6.74014ZM15.5731 7.23648C16.0237 5.83547 16.7699 4.51189 17.7239 3.43121C18.7694 2.24844 19.9662 1.49513 20.9272 1.41065C20.9836 1.40713 21.0399 1.40361 21.0962 1.40361C21.8002 1.40361 22.3071 1.80491 22.6415 2.6251C22.9126 3.29745 22.8915 3.85363 22.5676 4.37813C21.9833 5.33209 20.4414 6.14524 18.1146 6.73662C17.1501 6.98655 16.2349 7.14144 15.5731 7.23648Z" fill="white"></path><path d="M2.99896 14.333H12.8835V30.1736H4.26621C3.5657 30.1736 2.99896 29.6069 2.99896 28.9064V14.333Z" fill="white"></path><path d="M27.0655 14.333V28.9064C27.0655 29.6069 26.4988 30.1736 25.7983 30.1736H17.1774V14.333H27.0655Z" fill="white"></path></svg>