<?xml version="1.0" encoding="utf-8"?>
<!-- Generator: Adobe Illustrator 24.2.1, SVG Export Plug-In . SVG Version: 6.00 Build 0)  -->
<svg version="1.1" id="Layer_1" xmlns="http://www.w3.org/2000/svg" xmlns:xlink="http://www.w3.org/1999/xlink" x="0px" y="0px"
	 viewBox="0 0 47.8 48" style="enable-background:new 0 0 47.8 48;" xml:space="preserve">
<style type="text/css">
	.st0{fill-rule:evenodd;clip-rule:evenodd;fill:#FFFFFF;}
</style>
<path class="st0" d="M40.8,7.2c-4.3-4.3-10.3-7-16.9-7c-6.6,0-12.6,2.7-16.9,7c-4.3,4.3-7,10.3-7,16.9c0,2.2,0.3,4.4,0.9,6.4
	c0.6,2.1,1.4,4.1,2.5,5.9l0,0c0.3,0.5,0.4,1.2,0.2,1.8l-2.5,8.7l8.5-2.5c0.6-0.2,1.3-0.2,2,0.2c1.8,1.1,3.8,2,5.9,2.5
	c2,0.6,4.2,0.9,6.4,0.9c6.6,0,12.6-2.7,16.9-7s7-10.3,7-16.9C47.8,17.5,45.1,11.5,40.8,7.2L40.8,7.2L40.8,7.2z M20,11.3
	c0-1.1,0.4-2.1,1.2-2.9C22,7.7,22.9,7.3,24,7.3c1.1,0,2.1,0.4,2.8,1.2c0.8,0.8,1.2,1.7,1.2,2.9c0,1.1-0.4,2.1-1.2,2.8
	c-0.8,0.8-1.7,1.2-2.8,1.2c-1.1,0-2-0.4-2.8-1.2C20.4,13.3,20,12.4,20,11.3L20,11.3L20,11.3z M16.8,23.2v-5.3h10.8v17.7H31v5.3H16.8
	v-5.3h3.5V23.2H16.8L16.8,23.2z"/>
</svg>
