<svg width="75" height="121" viewBox="0 0 75 121" fill="none" xmlns="http://www.w3.org/2000/svg">
<path d="M0 115.2V5.20001C0 2.40001 2.2 0.200012 5 0.200012H70C72.8 0.200012 75 2.40001 75 5.20001V115.2C75 118 72.8 120.2 70 120.2H5C2.2 120.2 0 117.9 0 115.2Z" fill="white"/>
<path d="M14.6 17.6V20.1H13.1V17.6H10V16.2L12.6 7.70001H14.6V16.2H15.5V17.6H14.6ZM13.1 16.2V10L11.3 16.1H13.1V16.2Z" fill="#EA4734"/>
<path d="M60.5 102.8V100.3H62V102.8H65.1V104.2L62.5 112.7H60.5V104.2H59.6V102.8H60.5ZM62 104.2V110.3L63.8 104.2H62Z" fill="#EA4734"/>
<path d="M37.5 39.6L23.5 60.2L37.5 80.7L51.5 60.2L37.5 39.6Z" fill="#EA4734"/>
<path d="M62.2 84.9L57.9 91.3L62.2 97.7L66.6 91.3L62.2 84.9Z" fill="#EA4734"/>
<path d="M12.8 22.7L8.5 29.1L12.8 35.4L17.1 29.1L12.8 22.7Z" fill="#EA4734"/>
</svg>
