<svg width="75" height="121" viewBox="0 0 75 121" fill="none" xmlns="http://www.w3.org/2000/svg">
<path d="M0 115.8V5.79999C0 2.99999 2.2 0.799988 5 0.799988H70C72.8 0.799988 75 2.99999 75 5.79999V115.8C75 118.6 72.8 120.8 70 120.8H5C2.2 120.8 0 118.6 0 115.8Z" fill="white"/>
<path d="M12.9 20.8C12.1 20.8 11.4 20.6 10.9 19.8C10.4 19.1 10.3 17.8 10.3 15.1C10.3 10.6 10.8 8.20001 13.7 8.20001C14.5 8.20001 15.1 8.40002 15.1 8.40002V9.79999H15C15 9.79999 14.4 9.59998 13.8 9.59998C12.3 9.59998 12 10.8 12 14C12.2 13.2 12.7 12.9 13.5 12.9C15.2 12.9 15.6 14.5 15.6 16.7C15.5 19 15 20.8 12.9 20.8ZM12 16.9C12 18.6 12.1 19.5 13 19.5C13.8 19.5 14 18.6 14 16.9C14 15.2 13.9 14.3 13 14.3C12.1 14.3 12 15.2 12 16.9Z" fill="#EA4734"/>
<path d="M62.2 100.8C63 100.8 63.7 101 64.2 101.8C64.7 102.5 64.8 103.8 64.8 106.5C64.8 111 64.3 113.4 61.4 113.4C60.6 113.4 60 113.2 60 113.2V111.8H60.1C60.1 111.8 60.7 112 61.3 112C62.8 112 63.1 110.8 63.1 107.6C62.9 108.4 62.4 108.7 61.6 108.7C59.9 108.7 59.5 107.1 59.5 104.9C59.5 102.6 60 100.8 62.2 100.8ZM63.1 104.7C63.1 103 63 102.1 62.1 102.1C61.3 102.1 61.1 103 61.1 104.7C61.1 106.4 61.2 107.3 62.1 107.3C63 107.3 63.1 106.4 63.1 104.7Z" fill="#EA4734"/>
<path d="M37.5 40.3L23.5 60.8L37.5 81.4L51.5 60.8L37.5 40.3Z" fill="#EA4734"/>
<path d="M62.2 85.5L57.9 91.9L62.2 98.3L66.6 91.9L62.2 85.5Z" fill="#EA4734"/>
<path d="M12.8 23.3L8.5 29.7L12.8 36.1L17.1 29.7L12.8 23.3Z" fill="#EA4734"/>
</svg>
