<svg width="75" height="121" viewBox="0 0 75 121" fill="none" xmlns="http://www.w3.org/2000/svg">
<path d="M0 115.6V5.60001C0 2.80001 2.2 0.600006 5 0.600006H70C72.8 0.600006 75 2.80001 75 5.60001V115.6C75 118.4 72.8 120.6 70 120.6H5C2.2 120.6 0 118.4 0 115.6Z" fill="white"/>
<path d="M10.5 9.60001V8.10001H15.1V9.29999L12.8 20.5H11.1L13.4 9.60001H10.5Z" fill="#EA4734"/>
<path d="M64.6 111.7V113.2H60V112L62.3 100.8H64L61.7 111.7H64.6V111.7Z" fill="#EA4734"/>
<path d="M37.5 40.1L23.5 60.6L37.5 81.2L51.5 60.6L37.5 40.1Z" fill="#EA4734"/>
<path d="M62.2 85.4L57.9 91.7L62.2 98.1L66.6 91.7L62.2 85.4Z" fill="#EA4734"/>
<path d="M12.8 23.1L8.5 29.5L12.8 35.9L17.1 29.5L12.8 23.1Z" fill="#EA4734"/>
</svg>
