<svg width="75" height="121" viewBox="0 0 75 121" fill="none" xmlns="http://www.w3.org/2000/svg">
<path d="M0 115.5V5.5C0 2.7 2.2 0.5 5 0.5H70C72.8 0.5 75 2.7 75 5.5V115.5C75 118.3 72.8 120.5 70 120.5H5C2.2 120.5 0 118.2 0 115.5Z" fill="white"/>
<path d="M12.9 7.79999C14.7 7.79999 15.4 8.90001 15.4 10.7C15.4 12.2 14.9 13 13.9 13.6C15 14.4 15.6 15.4 15.6 17.1C15.6 19.1 14.8 20.4 12.8 20.4C10.7 20.4 10.1 19.1 10.1 17.2C10.1 15.3 10.8 14.5 11.8 13.9C10.8 13.2 10.3 12.3 10.3 10.8C10.3 9.09999 10.9 7.79999 12.9 7.79999ZM12.8 19.2C13.6 19.2 13.9 18.4 13.9 17.3C13.9 15.8 13.4 15 12.8 14.5C12.1 15 11.8 15.8 11.8 17.3C11.7 18.5 12 19.2 12.8 19.2ZM12.9 13.2C13.5 12.7 13.8 12.1 13.8 10.8C13.8 9.89999 13.6 9.20001 12.9 9.20001C12.1 9.20001 12 9.99999 12 10.8C11.9 12 12.3 12.7 12.9 13.2Z" fill="#EA4734"/>
<path d="M62.2 113.1C60.4 113.1 59.7 112 59.7 110.2C59.7 108.7 60.2 107.9 61.2 107.3C60.1 106.5 59.5 105.5 59.5 103.8C59.5 101.8 60.3 100.5 62.3 100.5C64.4 100.5 65 101.8 65 103.7C65 105.6 64.3 106.4 63.3 107C64.3 107.7 64.8 108.6 64.8 110.1C64.8 111.8 64.1 113.1 62.2 113.1ZM62.3 101.7C61.5 101.7 61.2 102.5 61.2 103.6C61.2 105.1 61.7 105.9 62.3 106.4C63 105.9 63.3 105.1 63.3 103.6C63.3 102.4 63.1 101.7 62.3 101.7ZM62.2 107.7C61.6 108.2 61.3 108.8 61.3 110.1C61.3 111 61.5 111.7 62.2 111.7C63 111.7 63.1 110.9 63.1 110.1C63.1 108.8 62.8 108.2 62.2 107.7Z" fill="#EA4734"/>
<path d="M37.5 39.9L23.5 60.5L37.5 81L51.5 60.5L37.5 39.9Z" fill="#EA4734"/>
<path d="M62.2 85.2L57.9 91.6L62.2 97.9L66.6 91.6L62.2 85.2Z" fill="#EA4734"/>
<path d="M12.8 23L8.5 29.3L12.8 35.7L17.1 29.3L12.8 23Z" fill="#EA4734"/>
</svg>
