<svg width="75" height="121" viewBox="0 0 75 121" fill="none" xmlns="http://www.w3.org/2000/svg">
<path d="M0 115.2V5.20001C0 2.40001 2.2 0.200012 5 0.200012H70C72.8 0.200012 75 2.40001 75 5.20001V115.2C75 118 72.8 120.2 70 120.2H5C2.2 120.2 0 117.9 0 115.2Z" fill="white"/>
<path d="M12.7 7.60004C13.5 7.60004 14.2 7.80004 14.7 8.60004C15.2 9.30004 15.3 10.6 15.3 13.3C15.3 17.8 14.8 20.2 11.9 20.2C11.1 20.2 10.5 20 10.5 20V18.6H10.6C10.6 18.6 11.2 18.8 11.8 18.8C13.3 18.8 13.6 17.6 13.6 14.4C13.3 15.2 12.8 15.5 12.1 15.5C10.5 15.5 10 13.9 10 11.7C10.1 9.40003 10.6 7.60004 12.7 7.60004ZM13.7 11.5C13.7 9.80003 13.6 8.90002 12.7 8.90002C11.9 8.90002 11.7 9.80003 11.7 11.5C11.7 13.2 11.8 14.1 12.7 14.1C13.6 14.1 13.7 13.2 13.7 11.5Z" fill="#EA4734"/>
<path d="M62.3 112.8C61.5 112.8 60.8 112.6 60.3 111.8C59.8 111.1 59.7 109.8 59.7 107.1C59.7 102.6 60.1 100.2 63.1 100.2C63.9 100.2 64.5 100.4 64.5 100.4V101.8H64.4C64.4 101.8 63.8 101.6 63.2 101.6C61.7 101.6 61.4 102.8 61.4 106C61.7 105.2 62.2 104.9 62.9 104.9C64.5 104.9 65 106.5 65 108.7C65 111 64.4 112.8 62.3 112.8ZM61.4 108.9C61.4 110.6 61.5 111.5 62.4 111.5C63.2 111.5 63.4 110.6 63.4 108.9C63.4 107.2 63.3 106.3 62.4 106.3C61.5 106.3 61.4 107.1 61.4 108.9Z" fill="#EA4734"/>
<path d="M37.5 39.6L23.5 60.2L37.5 80.7L51.5 60.2L37.5 39.6Z" fill="#EA4734"/>
<path d="M62.2 84.9L57.9 91.3L62.2 97.7L66.6 91.3L62.2 84.9Z" fill="#EA4734"/>
<path d="M12.8 22.7L8.5 29.1L12.8 35.5L17.1 29.1L12.8 22.7Z" fill="#EA4734"/>
</svg>
