<svg width="76" height="120" viewBox="0 0 76 120" fill="none" xmlns="http://www.w3.org/2000/svg">
<path d="M0.5 115V5C0.5 2.2 2.7 0 5.5 0H70.5C73.3 0 75.5 2.2 75.5 5V115C75.5 117.8 73.3 120 70.5 120H5.5C2.7 120 0.5 117.8 0.5 115Z" fill="white"/>
<path d="M14.9 19.9L14.4 16.4H12L11.5 19.9H10.1L12.3 6.40002H14.5L16.6 19.9H14.9ZM12.2 15H14.2L13.3 8.20002L12.2 15Z" fill="#EA4734"/>
<path d="M61.2 100.1L61.7 103.6H64.1L64.6 100.1H66L63.8 113.6H61.6L59.5 100.1H61.2ZM63.8 105H61.8L62.7 111.8L63.8 105Z" fill="#EA4734"/>
<path d="M62.7 84.7L58.4 91.1L62.7 97.5L67.1 91.1L62.7 84.7Z" fill="#EA4734"/>
<path d="M13.3 22.5L8.90002 28.9L13.3 35.3L17.6 28.9L13.3 22.5Z" fill="#EA4734"/>
<path d="M43.2 83.9L41.6 72.1H33.7L32 83.9H27.3L34.6 38.8H41.8L48.8 83.9H43.2ZM34.4 67.6H40.9L37.8 45L34.4 67.6Z" fill="#EA4734"/>
</svg>
