<svg width="76" height="121" viewBox="0 0 76 121" fill="none" xmlns="http://www.w3.org/2000/svg">
<path d="M0.5 115.2V5.20001C0.5 2.40001 2.7 0.200012 5.5 0.200012H70.5C73.3 0.200012 75.5 2.40001 75.5 5.20001V115.2C75.5 118 73.3 120.2 70.5 120.2H5.5C2.7 120.2 0.5 117.9 0.5 115.2Z" fill="white"/>
<path d="M12.5 6.5V12.8L14.9 6.5H16.4L14 12.6L16.5 20.1H14.8L12.5 13V20.1H10.9V6.60001H12.5V6.5Z" fill="#EA4734"/>
<path d="M63.5 113.8V107.5L61.1 113.8H59.6L62 107.7L59.5 100.2H61.2L63.5 107.3V100.2H65.1V113.7H63.5V113.8Z" fill="#EA4734"/>
<path d="M62.7 84.9L58.4 91.3L62.7 97.7L67.1 91.3L62.7 84.9Z" fill="#EA4734"/>
<path d="M13.3 22.7L8.90002 29.1L13.3 35.5L17.6 29.1L13.3 22.7Z" fill="#EA4734"/>
<path d="M35.4 38.9V59.9L43.3 38.9H48.3L40.3 59.2L48.8 84H43L35.4 60.4V84H30.1V38.9H35.4Z" fill="#EA4734"/>
</svg>
