<svg width="75" height="120" viewBox="0 0 75 120" fill="none" xmlns="http://www.w3.org/2000/svg">
<path d="M0 115V5C0 2.2 2.2 0 5 0H70C72.8 0 75 2.2 75 5V115C75 117.8 72.8 120 70 120H5C2.2 120 0 117.8 0 115Z" fill="white"/>
<path d="M9.1 19.9V9.1L7.7 9.6H7.6V8.1L9.5 7.5H10.7V19.9H9.1Z" fill="#EA4734"/>
<path d="M17.1 18.9C16.7 19.6 16 20 15 20C14.1 20 13.3 19.7 12.9 18.8C12.4 17.9 12.4 16.4 12.4 13.7C12.4 11 12.4 9.50002 12.9 8.50002C13.3 7.80002 14 7.40002 15 7.40002C15.9 7.40002 16.7 7.70002 17.1 8.60002C17.6 9.50002 17.6 11 17.6 13.7C17.6 16.4 17.6 17.9 17.1 18.9ZM15.7 9.30002C15.6 9.00002 15.4 8.70002 15 8.70002C14.6 8.70002 14.4 9.00002 14.3 9.30002C14 9.90002 14 10.7 14 13.7C14 16.7 14 17.5 14.3 18.1C14.5 18.5 14.7 18.7 15 18.7C15.3 18.7 15.6 18.5 15.8 18.1C16 17.5 16 16.4 16 13.6C16 10.8 16 9.90002 15.7 9.30002Z" fill="#EA4734"/>
<path d="M66 100.1V110.9L67.4 110.4H67.5V111.9L65.6 112.5H64.4V100.1H66V100.1Z" fill="#EA4734"/>
<path d="M58 101.1C58.4 100.3 59.1 99.9 60.1 99.9C61 99.9 61.8 100.2 62.2 101.1C62.7 102 62.7 103.5 62.7 106.2C62.7 108.9 62.7 110.4 62.2 111.4C61.8 112.2 61.1 112.6 60.1 112.6C59.2 112.6 58.4 112.3 58 111.4C57.5 110.5 57.5 109 57.5 106.3C57.5 103.6 57.5 102.1 58 101.1ZM59.3 110.7C59.4 111.1 59.7 111.3 60 111.3C60.3 111.3 60.6 111.1 60.7 110.7C60.9 110.1 61 109.3 61 106.3C61 103.3 61 102.5 60.7 101.9C60.5 101.5 60.3 101.3 60 101.3C59.7 101.3 59.4 101.5 59.2 101.9C59 102.5 59 103.6 59 106.4C59.1 109.2 59.1 110.1 59.3 110.7Z" fill="#EA4734"/>
<path d="M51.5 47.4C47.6 43.5 41.4 43.5 37.5 47.4C33.6 43.5 27.4 43.5 23.5 47.4C19.6 51.3 19.6 57.5 23.5 61.4L37.5 75.4L51.5 61.4C55.4 57.6 55.4 51.3 51.5 47.4Z" fill="#EA4734"/>
<path d="M17.2 23.4C16 22.2 14.1 22.2 12.9 23.4C11.7 22.2 9.8 22.2 8.6 23.4C7.4 24.6 7.4 26.5 8.6 27.7L12.9 32L17.2 27.7C18.4 26.5 18.4 24.6 17.2 23.4Z" fill="#EA4734"/>
<path d="M57.9 96.6C59.1 97.8 61 97.8 62.2 96.6C63.4 97.8 65.3 97.8 66.5 96.6C67.7 95.4 67.7 93.5 66.5 92.3L62.2 88L57.9 92.3C56.7 93.5 56.7 95.4 57.9 96.6Z" fill="#EA4734"/>
</svg>
