<svg width="75" height="121" viewBox="0 0 75 121" fill="none" xmlns="http://www.w3.org/2000/svg">
<path d="M0 115.2V5.19995C0 2.39995 2.2 0.199951 5 0.199951H70C72.8 0.199951 75 2.39995 75 5.19995V115.2C75 118 72.8 120.2 70 120.2H5C2.2 120.2 0 118 0 115.2Z" fill="white"/>
<path d="M15 20.1H10.4V18.9C11.8 15.9 13.2 13.5 13.2 10.9C13.2 9.60002 12.8 9.09998 11.9 9.09998C11.3 9.09998 10.6 9.40002 10.6 9.40002H10.5V8C10.5 8 11.1 7.69995 12.1 7.69995C14 7.69995 14.8 8.70005 14.8 10.8C14.8 13.7 13.1 16.3 12 18.7H15V20.1Z" fill="#EA4734"/>
<path d="M60.1 100.3H64.7V101.5C63.3 104.5 61.9 106.9 61.9 109.5C61.9 110.8 62.3 111.3 63.2 111.3C63.8 111.3 64.5 111 64.5 111H64.6V112.4C64.6 112.4 64 112.7 63 112.7C61.1 112.7 60.3 111.7 60.3 109.6C60.3 106.7 62 104.1 63.1 101.7H60.3V100.3H60.1Z" fill="#EA4734"/>
<path d="M51.5 47.6999C47.6 43.7999 41.4 43.7999 37.5 47.6999C33.6 43.7999 27.4 43.7999 23.5 47.6999C19.6 51.5999 19.6 57.7999 23.5 61.6999L37.5 75.6999L51.5 61.6999C55.4 57.7999 55.4 51.5999 51.5 47.6999Z" fill="#EA4734"/>
<path d="M17.2 23.6C16 22.4 14.1 22.4 12.9 23.6C11.7 22.4 9.8 22.4 8.6 23.6C7.4 24.8 7.4 26.7 8.6 27.9L12.9 32.1999L17.2 27.9C18.4 26.8 18.4 24.8 17.2 23.6Z" fill="#EA4734"/>
<path d="M57.9 96.8C59.1 98 61 98 62.2 96.8C63.4 98 65.3 98 66.5 96.8C67.7 95.6 67.7 93.7 66.5 92.5L62.2 88.2L57.9 92.5C56.7 93.7 56.7 95.6 57.9 96.8Z" fill="#EA4734"/>
</svg>
