<svg width="75" height="121" viewBox="0 0 75 121" fill="none" xmlns="http://www.w3.org/2000/svg">
<path d="M0 115.3V5.30005C0 2.50005 2.2 0.300049 5 0.300049H70C72.8 0.300049 75 2.50005 75 5.30005V115.3C75 118.1 72.8 120.3 70 120.3H5C2.2 120.3 0 118.1 0 115.3Z" fill="white"/>
<path d="M11.1 13.1H11.6C11.9 13.1 12.3 13.1 12.6 12.9C12.9 12.7 13.2 12.2 13.2 11C13.2 9.6 12.8 9.09998 12 9.09998C11.4 9.09998 10.8 9.30005 10.8 9.30005H10.7V7.90002C10.7 7.90002 11.3 7.69995 12.2 7.69995C14.1 7.69995 14.9 8.69995 14.9 10.7C14.9 12.4 14.3 13.3 13.3 13.6C14.4 13.8 15.1 14.8 15.1 16.8C15.1 18.9 14.3 20.3 12.1 20.3C11.2 20.3 10.7 20.1 10.7 20.1V18.7H10.8C10.8 18.7 11.4 18.9 12 18.9C13 18.9 13.4 18.3 13.4 16.8C13.4 15.6 13.1 15 12.7 14.7C12.4 14.5 12 14.5 11.7 14.5H11.1V13.1V13.1Z" fill="#EA4734"/>
<path d="M64 107.6H63.5C63.2 107.6 62.8 107.6 62.5 107.8C62.2 108 61.9 108.5 61.9 109.7C61.9 111.1 62.3 111.6 63.1 111.6C63.7 111.6 64.3 111.4 64.3 111.4H64.4V112.8C64.4 112.8 63.8 113 62.9 113C61 113 60.2 112 60.2 110C60.2 108.3 60.8 107.4 61.8 107.1C60.7 106.9 60 105.9 60 103.9C60 101.8 60.8 100.4 63 100.4C63.9 100.4 64.4 100.6 64.4 100.6V102H64.3C64.3 102 63.7 101.8 63.1 101.8C62.1 101.8 61.7 102.4 61.7 103.9C61.7 105.1 62 105.7 62.4 106C62.7 106.2 63.1 106.2 63.4 106.2H64V107.6Z" fill="#EA4734"/>
<path d="M51.5 47.8C47.6 43.9 41.4 43.9 37.5 47.8C33.6 43.9 27.4 43.9 23.5 47.8C19.6 51.7 19.6 57.9 23.5 61.8L37.5 75.8L51.5 61.8C55.4 57.9 55.4 51.7 51.5 47.8Z" fill="#EA4734"/>
<path d="M17.2 23.6999C16 22.4999 14.1 22.4999 12.9 23.6999C11.7 22.4999 9.8 22.4999 8.6 23.6999C7.4 24.8999 7.4 26.8 8.6 28L12.9 32.3L17.2 28C18.4 26.9 18.4 24.8999 17.2 23.6999Z" fill="#EA4734"/>
<path d="M57.9 96.9C59.1 98.1 61 98.1 62.2 96.9C63.4 98.1 65.3 98.1 66.5 96.9C67.7 95.7 67.7 93.8 66.5 92.6L62.2 88.3L57.9 92.6C56.7 93.8 56.7 95.7 57.9 96.9Z" fill="#EA4734"/>
</svg>
