<svg width="75" height="121" viewBox="0 0 75 121" fill="none" xmlns="http://www.w3.org/2000/svg">
<path d="M0 115.2V5.20001C0 2.40001 2.2 0.200012 5 0.200012H70C72.8 0.200012 75 2.40001 75 5.20001V115.2C75 118 72.8 120.2 70 120.2H5C2.2 120.2 0 117.9 0 115.2Z" fill="white"/>
<path d="M14.6 17.6V20.1H13.1V17.6H10V16.2L12.6 7.70001H14.6V16.2H15.5V17.6H14.6ZM13.1 16.2V10L11.3 16.1H13.1V16.2Z" fill="#EA4734"/>
<path d="M60.5 102.8V100.3H62V102.8H65.1V104.2L62.5 112.7H60.5V104.2H59.6V102.8H60.5ZM62 104.2V110.3L63.8 104.2H62Z" fill="#EA4734"/>
<path d="M51.5 47.6C47.6 43.7 41.4 43.7 37.5 47.6C33.6 43.7 27.4 43.7 23.5 47.6C19.6 51.5 19.6 57.7 23.5 61.6L37.5 75.6L51.5 61.6C55.4 57.8 55.4 51.5 51.5 47.6Z" fill="#EA4734"/>
<path d="M17.2 23.6C16 22.4 14.1 22.4 12.9 23.6C11.7 22.4 9.8 22.4 8.6 23.6C7.4 24.8 7.4 26.7 8.6 27.9L12.9 32.2L17.2 27.9C18.4 26.7 18.4 24.8 17.2 23.6Z" fill="#EA4734"/>
<path d="M57.9 96.8C59.1 98 61 98 62.2 96.8C63.4 98 65.3 98 66.5 96.8C67.7 95.6 67.7 93.7 66.5 92.5L62.2 88.2L57.9 92.5C56.7 93.6 56.7 95.6 57.9 96.8Z" fill="#EA4734"/>
</svg>
