<svg width="75" height="120" viewBox="0 0 75 120" fill="none" xmlns="http://www.w3.org/2000/svg">
<path d="M0 115V5C0 2.2 2.2 0 5 0H70C72.8 0 75 2.2 75 5V115C75 117.8 72.8 120 70 120H5C2.2 120 0 117.8 0 115Z" fill="white"/>
<path d="M12.4 9L12.3 12.5C14.5 12.5 15.2 13.9 15.2 16.1C15.2 18.5 14.3 20 12.1 20C11.2 20 10.7 19.8 10.7 19.8V18.4H10.8C10.8 18.4 11.4 18.6 12 18.6C13 18.6 13.5 18 13.5 16.4C13.5 14.9 13 14 11.7 14C11.3 14 10.9 14.1 10.9 14.1H10.8L11 7.59998H14.8V9.09998H12.4V9Z" fill="#EA4734"/>
<path d="M62.7 111L62.8 107.5C60.6 107.5 59.9 106.1 59.9 103.9C59.9 101.5 60.8 100 63 100C63.9 100 64.4 100.2 64.4 100.2V101.6H64.3C64.3 101.6 63.7 101.4 63.1 101.4C62.1 101.4 61.6 102 61.6 103.6C61.6 105.1 62.1 106 63.4 106C63.8 106 64.2 105.9 64.2 105.9H64.3L64.1 112.4H60.3V111H62.7Z" fill="#EA4734"/>
<path d="M51.5 47.4C47.6 43.5 41.4 43.5 37.5 47.4C33.6 43.5 27.4 43.5 23.5 47.4C19.6 51.3 19.6 57.5 23.5 61.4L37.5 75.4L51.5 61.4C55.4 57.6 55.4 51.3 51.5 47.4Z" fill="#EA4734"/>
<path d="M17.2 23.4C16 22.2 14.1 22.2 12.9 23.4C11.7 22.2 9.8 22.2 8.6 23.4C7.4 24.6 7.4 26.5 8.6 27.7L12.9 32L17.2 27.7C18.4 26.5 18.4 24.6 17.2 23.4Z" fill="#EA4734"/>
<path d="M57.9 96.6C59.1 97.8 61 97.8 62.2 96.6C63.4 97.8 65.3 97.8 66.5 96.6C67.7 95.4 67.7 93.5 66.5 92.3L62.2 88L57.9 92.3C56.7 93.4 56.7 95.4 57.9 96.6Z" fill="#EA4734"/>
</svg>
