<svg width="75" height="121" viewBox="0 0 75 121" fill="none" xmlns="http://www.w3.org/2000/svg">
<path d="M0 115.6V5.60001C0 2.80001 2.2 0.600006 5 0.600006H70C72.8 0.600006 75 2.80001 75 5.60001V115.6C75 118.4 72.8 120.6 70 120.6H5C2.2 120.6 0 118.4 0 115.6Z" fill="white"/>
<path d="M10.5 9.60001V8.10001H15V9.29999L12.7 20.5H11L13.3 9.60001H10.5Z" fill="#EA4734"/>
<path d="M64.6 111.7V113.2H60V112L62.3 100.8H64L61.7 111.7H64.6V111.7Z" fill="#EA4734"/>
<path d="M51.5 48.1C47.6 44.2 41.4 44.2 37.5 48.1C33.6 44.2 27.4 44.2 23.5 48.1C19.6 52 19.6 58.2 23.5 62.1L37.5 76.1L51.5 62.1C55.4 58.2 55.4 51.9 51.5 48.1Z" fill="#EA4734"/>
<path d="M17.2 24C16 22.8 14.1 22.8 12.9 24C11.7 22.8 9.8 22.8 8.6 24C7.4 25.2 7.4 27.1 8.6 28.3L12.9 32.6L17.2 28.3C18.4 27.2 18.4 25.2 17.2 24Z" fill="#EA4734"/>
<path d="M57.9 97.2C59.1 98.4 61 98.4 62.2 97.2C63.4 98.4 65.3 98.4 66.5 97.2C67.7 96 67.7 94.1 66.5 92.9L62.2 88.6L57.9 92.9C56.7 94.1 56.7 96 57.9 97.2Z" fill="#EA4734"/>
</svg>
