<svg width="76" height="120" viewBox="0 0 76 120" fill="none" xmlns="http://www.w3.org/2000/svg">
<path d="M0.5 115V5C0.5 2.2 2.7 0 5.5 0H70.5C73.3 0 75.5 2.2 75.5 5V115C75.5 117.8 73.3 120 70.5 120H5.5C2.7 120 0.5 117.8 0.5 115Z" fill="white"/>
<path d="M14.9 19.9L14.4 16.4H12L11.5 19.9H10.1L12.3 6.40002H14.5L16.6 19.9H14.9ZM12.2 15H14.2L13.3 8.20002L12.2 15Z" fill="#EA4734"/>
<path d="M43.2 83.9L41.6 72.1H33.7L32 83.9H27.3L34.6 38.8H41.8L48.8 83.9H43.2ZM34.4 67.6H40.9L37.8 45L34.4 67.6Z" fill="#EA4734"/>
<path d="M61.2 100.1L61.7 103.6H64.1L64.6 100.1H66L63.8 113.6H61.6L59.5 100.1H61.2ZM63.8 105H61.8L62.7 111.8L63.8 105Z" fill="#EA4734"/>
<path d="M17.7 23.4C16.5 22.2 14.6 22.2 13.4 23.4C12.2 22.2 10.3 22.2 9.09995 23.4C7.89995 24.6 7.89995 26.5 9.09995 27.7L13.4 32L17.7 27.7C18.9 26.5 18.9 24.6 17.7 23.4Z" fill="#EA4734"/>
<path d="M58.4 96.6C59.6 97.8 61.5 97.8 62.7 96.6C63.9 97.8 65.8 97.8 67 96.6C68.2 95.4 68.2 93.5 67 92.3L62.7 88L58.4 92.3C57.2 93.5 57.2 95.4 58.4 96.6Z" fill="#EA4734"/>
</svg>
