<svg width="76" height="121" viewBox="0 0 76 121" fill="none" xmlns="http://www.w3.org/2000/svg">
<path d="M0.5 115.2V5.20001C0.5 2.40001 2.7 0.200012 5.5 0.200012H70.5C73.3 0.200012 75.5 2.40001 75.5 5.20001V115.2C75.5 118 73.3 120.2 70.5 120.2H5.5C2.7 120.2 0.5 117.9 0.5 115.2Z" fill="white"/>
<path d="M12.5 6.5V12.8L14.9 6.5H16.4L14 12.6L16.5 20.1H14.8L12.5 13V20.1H10.9V6.60001H12.5V6.5Z" fill="#EA4734"/>
<path d="M35.4 38.9V59.9L43.3 38.9H48.3L40.3 59.2L48.8 84H43L35.4 60.4V84H30V38.9H35.4Z" fill="#EA4734"/>
<path d="M63.5 113.8V107.5L61.1 113.8H59.6L62 107.7L59.5 100.2H61.2L63.5 107.3V100.2H65.1V113.7H63.5V113.8Z" fill="#EA4734"/>
<path d="M17.7 23.6C16.5 22.4 14.6 22.4 13.4 23.6C12.2 22.4 10.3 22.4 9.09995 23.6C7.89995 24.8 7.89995 26.7 9.09995 27.9L13.4 32.2L17.7 27.9C18.9 26.7 18.9 24.8 17.7 23.6Z" fill="#EA4734"/>
<path d="M58.4 96.8C59.6 98 61.5 98 62.7 96.8C63.9 98 65.8 98 67 96.8C68.2 95.6 68.2 93.7 67 92.5L62.7 88.2L58.4 92.5C57.2 93.6 57.2 95.6 58.4 96.8Z" fill="#EA4734"/>
</svg>
