<svg width="76" height="121" viewBox="0 0 76 121" fill="none" xmlns="http://www.w3.org/2000/svg">
<path d="M0.5 115.4V5.39999C0.5 2.59999 2.7 0.399994 5.5 0.399994H70.5C73.3 0.399994 75.5 2.59999 75.5 5.39999V115.4C75.5 118.2 73.3 120.4 70.5 120.4H5.5C2.7 120.4 0.5 118.1 0.5 115.4Z" fill="white"/>
<path d="M15.7 19.1C15.5 19.4 15.3 19.7 15 19.9L16.1 21.8H14.4L13.6 20.4C13.5 20.4 13.4 20.4 13.2 20.4C12.3 20.4 11.4 20.1 10.9 19.1C10.3 18.1 10.3 16.3 10.3 13.5C10.3 10.3 10.4 8.89999 10.9 7.79999C11.4 6.79999 12.3 6.5 13.3 6.5C14.3 6.5 15.2 6.89999 15.7 7.79999C16.3 8.79999 16.3 10.5 16.3 13.4C16.3 16.3 16.3 18 15.7 19.1ZM14.3 18.3C14.6 17.6 14.6 16.5 14.6 13.5C14.6 10.5 14.6 9.40001 14.3 8.70001C14.1 8.30001 13.8 8 13.3 8C12.9 8 12.5 8.30001 12.4 8.70001C12.1 9.40001 12.1 10.5 12.1 13.5C12.1 16.5 12.1 17.6 12.4 18.3C12.6 18.7 12.9 19 13.3 19C13.8 19 14.1 18.7 14.3 18.3Z" fill="#EA4734"/>
<path d="M45.9 80.3C45.3 81.4 44.6 82.2 43.7 82.9L47.4 89.2H41.6L39.1 84.6C38.7 84.6 38.3 84.7 37.9 84.7C34.8 84.7 31.8 83.6 30.2 80.4C28.3 76.9 28.1 71.1 28.1 61.9C28.1 51.2 28.3 46.4 30.2 42.9C31.9 39.7 34.8 38.6 38.1 38.6C41.5 38.6 44.3 39.8 46 42.9C47.9 46.4 48.1 51.8 48.1 61.5C48 71.1 47.8 76.8 45.9 80.3ZM41.1 77.7C42.1 75.4 42.2 71.6 42.2 61.7C42.2 51.8 42.1 48 41.1 45.7C40.5 44.3 39.5 43.3 37.9 43.3C36.4 43.3 35.4 44.3 34.8 45.7C33.8 48.1 33.7 51.8 33.7 61.7C33.7 71.6 33.8 75.4 34.8 77.7C35.4 79.1 36.4 80.1 37.9 80.1C39.5 80.1 40.5 79.1 41.1 77.7Z" fill="#EA4734"/>
<path d="M60.4001 101.7C60.6001 101.4 60.8 101.1 61.1 100.9L60 99H61.7L62.5 100.4C62.6 100.4 62.7001 100.4 62.9001 100.4C63.8001 100.4 64.7 100.7 65.2 101.7C65.8 102.7 65.8 104.5 65.8 107.3C65.8 110.5 65.7 111.9 65.2 113C64.7 114 63.8 114.3 62.8 114.3C61.8 114.3 60.9001 113.9 60.4001 113C59.8001 112 59.8 110.3 59.8 107.4C59.7 104.4 59.8001 102.7 60.4001 101.7ZM61.8 102.4C61.5 103.1 61.5 104.2 61.5 107.2C61.5 110.2 61.5 111.3 61.8 112C62 112.4 62.3 112.7 62.8 112.7C63.3 112.7 63.6 112.4 63.7 112C64 111.3 64 110.2 64 107.2C64 104.2 64 103.1 63.7 102.4C63.5 102 63.2 101.7 62.8 101.7C62.3 101.7 62 102 61.8 102.4Z" fill="#EA4734"/>
<path d="M17.7 23.8C16.5 22.6 14.6 22.6 13.4 23.8C12.2 22.6 10.3 22.6 9.09995 23.8C7.89995 25 7.89995 26.9 9.09995 28.1L13.4 32.4L17.7 28.1C18.9 26.9 18.9 25 17.7 23.8Z" fill="#EA4734"/>
<path d="M58.4 97C59.6 98.2 61.5 98.2 62.7 97C63.9 98.2 65.8 98.2 67 97C68.2 95.8 68.2 93.9 67 92.7L62.7 88.4L58.4 92.7C57.2 93.8 57.2 95.8 58.4 97Z" fill="#EA4734"/>
</svg>
