<svg width="76" height="121" viewBox="0 0 76 121" fill="none" xmlns="http://www.w3.org/2000/svg">
<path d="M0.5 115.7V5.70001C0.5 2.90001 2.7 0.700012 5.5 0.700012H70.5C73.3 0.700012 75.5 2.90001 75.5 5.70001V115.7C75.5 118.5 73.3 120.7 70.5 120.7H5.5C2.7 120.7 0.5 118.5 0.5 115.7Z" fill="#000066"/>
<path d="M13.5 60.2H0.5V61.2H13.5V60.2Z" fill="white"/>
<path d="M75.5 60.2H62.5V61.2H75.5V60.2Z" fill="white"/>
<path d="M38 36.7C51.2 36.7 62 47.5 62 60.7C62 73.9 51.2 84.7 38 84.7C24.8 84.7 14 73.9 14 60.7C14 47.5 24.8 36.7 38 36.7ZM38 35.7C24.2 35.7 13 46.9 13 60.7C13 74.5 24.2 85.7 38 85.7C51.8 85.7 63 74.5 63 60.7C63 46.9 51.8 35.7 38 35.7Z" fill="white"/>
<path d="M43.9 52.9V58.1C45.3 58.1 46.5 59.3 46.5 60.7C46.5 62.1 45.3 63.3 43.9 63.3V68.5C48.2 68.5 51.8 65 51.8 60.6C51.8 56.4 48.3 52.9 43.9 52.9Z" fill="#EA4734"/>
<path d="M40.7 58.6H38.2V68.6H43.5V53L40.7 58.6Z" fill="#05ACFF"/>
<path d="M37.8 52.9L34.9 58.6H32.5V68.6H37.7V58.1H40.4L43 52.9H37.8Z" fill="#EA4734"/>
<path d="M32 52.9C27.7 52.9 24.1 56.4 24.1 60.8C24.1 65.1 27.6 68.7 32 68.7V63.5C30.6 63.5 29.4 62.3 29.4 60.9C29.4 59.5 30.6 58.3 32 58.3H34.6L37.2 53.1H32V52.9Z" fill="#05ACFF"/>
</svg>
