<svg width="75" height="121" viewBox="0 0 75 121" fill="none" xmlns="http://www.w3.org/2000/svg">
<path d="M0 115.2V5.19995C0 2.39995 2.2 0.199951 5 0.199951H70C72.8 0.199951 75 2.39995 75 5.19995V115.2C75 118 72.8 120.2 70 120.2H5C2.2 120.2 0 118 0 115.2Z" fill="white"/>
<path d="M15 20.1H10.4V18.9C11.8 15.9 13.2 13.5 13.2 10.9C13.2 9.60002 12.8 9.09998 11.9 9.09998C11.3 9.09998 10.6 9.40002 10.6 9.40002H10.5V8C10.5 8 11.1 7.69995 12.1 7.69995C14 7.69995 14.8 8.70005 14.8 10.8C14.8 13.7 13.1 16.3 12 18.7H14.8V20.1H15Z" fill="#000066"/>
<path d="M60.1 100.3H64.7V101.5C63.3 104.5 61.9 106.9 61.9 109.5C61.9 110.8 62.3 111.3 63.2 111.3C63.8 111.3 64.5 111 64.5 111H64.6V112.4C64.6 112.4 64 112.7 63 112.7C61.1 112.7 60.3 111.7 60.3 109.6C60.3 106.7 62 104.1 63.1 101.7H60.3V100.3H60.1Z" fill="#000066"/>
<path d="M51.5 67.7C55.4 63.8 55.4 57.6 51.5 53.7L37.5 39.7L23.5 53.7C19.6 57.6 19.6 63.8 23.5 67.7C26.9 71.1 32.2 71.5 36.1 68.9L29.2 80.8H45.8L38.9 68.9C42.8 71.5 48.1 71.1 51.5 67.7Z" fill="#000066"/>
<path d="M17.2 31.4C18.4 30.2 18.4 28.2 17.2 27L12.8 22.6L8.4 27C7.2 28.2 7.2 30.2 8.4 31.4C9.5 32.5 11.1 32.6 12.3 31.8L10.2 35.5H15.4L13.3 31.8C14.5 32.6 16.1 32.5 17.2 31.4Z" fill="#000066"/>
<path d="M57.9 89C56.7 90.2 56.7 92.2 57.9 93.4L62.3 97.8L66.7 93.4C67.9 92.2 67.9 90.2 66.7 89C65.6 87.9 64 87.8 62.8 88.6L64.9 84.9H59.7L61.8 88.6C60.6 87.9 59 88 57.9 89Z" fill="#000066"/>
</svg>
