<svg width="75" height="121" viewBox="0 0 75 121" fill="none" xmlns="http://www.w3.org/2000/svg">
<path d="M0 115.3V5.30005C0 2.50005 2.2 0.300049 5 0.300049H70C72.8 0.300049 75 2.50005 75 5.30005V115.3C75 118.1 72.8 120.3 70 120.3H5C2.2 120.3 0 118.1 0 115.3Z" fill="white"/>
<path d="M11.1 13.1H11.6C11.9 13.1 12.3 13.1 12.6 12.9C12.9 12.7 13.2 12.2 13.2 11C13.2 9.6 12.8 9.09998 12 9.09998C11.4 9.09998 10.8 9.30005 10.8 9.30005H10.7V7.90002C10.7 7.90002 11.3 7.69995 12.2 7.69995C14.1 7.69995 14.9 8.69995 14.9 10.7C14.9 12.4 14.3 13.3 13.3 13.6C14.4 13.8 15.1 14.8 15.1 16.8C15.1 18.9 14.3 20.3 12.1 20.3C11.2 20.3 10.7 20.1 10.7 20.1V18.7H10.8C10.8 18.7 11.4 18.9 12 18.9C13 18.9 13.4 18.3 13.4 16.8C13.4 15.6 13.1 15 12.7 14.7C12.4 14.5 12 14.5 11.7 14.5H11.1V13.1Z" fill="#000066"/>
<path d="M64 107.6H63.5C63.2 107.6 62.8 107.6 62.5 107.8C62.2 108 61.9 108.5 61.9 109.7C61.9 111.1 62.3 111.6 63.1 111.6C63.7 111.6 64.3 111.4 64.3 111.4H64.4V112.8C64.4 112.8 63.8 113 62.9 113C61 113 60.2 112 60.2 110C60.2 108.3 60.8 107.4 61.8 107.1C60.7 106.9 60 105.9 60 103.9C60 101.8 60.8 100.4 63 100.4C63.9 100.4 64.4 100.6 64.4 100.6V102H64.3C64.3 102 63.7 101.8 63.1 101.8C62.1 101.8 61.7 102.4 61.7 103.9C61.7 105.1 62 105.7 62.4 106C62.7 106.2 63.1 106.2 63.4 106.2H64V107.6Z" fill="#000066"/>
<path d="M51.5 67.8C55.4 63.9 55.4 57.7 51.5 53.8L37.5 39.8L23.5 53.8C19.6 57.7 19.6 63.9 23.5 67.8C26.9 71.2 32.2 71.6 36.1 69L29.2 80.9H45.8L38.9 69C42.8 71.6 48.1 71.2 51.5 67.8Z" fill="#000066"/>
<path d="M17.2 31.5C18.4 30.3 18.4 28.3 17.2 27.1L12.8 22.7L8.4 27.1C7.2 28.3 7.2 30.3 8.4 31.5C9.5 32.6 11.1 32.7 12.3 31.9L10.2 35.6H15.4L13.3 31.9C14.5 32.7 16.1 32.6 17.2 31.5Z" fill="#000066"/>
<path d="M57.9 89.1C56.7 90.3 56.7 92.3 57.9 93.5L62.3 97.9L66.7 93.5C67.9 92.3 67.9 90.3 66.7 89.1C65.6 88 64 87.9 62.8 88.7L64.9 85H59.7L61.8 88.7C60.6 88 59 88.1 57.9 89.1Z" fill="#000066"/>
</svg>
