<svg width="75" height="121" viewBox="0 0 75 121" fill="none" xmlns="http://www.w3.org/2000/svg">
<path d="M0 115.2V5.20001C0 2.40001 2.2 0.200012 5 0.200012H70C72.8 0.200012 75 2.40001 75 5.20001V115.2C75 118 72.8 120.2 70 120.2H5C2.2 120.2 0 117.9 0 115.2Z" fill="white"/>
<path d="M14.6 17.6V20.1H13.1V17.6H10V16.2L12.6 7.70001H14.6V16.2H15.5V17.6H14.6ZM13.1 16.2V10L11.3 16.1H13.1V16.2Z" fill="#000066"/>
<path d="M60.5 102.8V100.3H62V102.8H65.1V104.2L62.5 112.7H60.5V104.2H59.6V102.8H60.5ZM62 104.2V110.3L63.8 104.2H62Z" fill="#000066"/>
<path d="M51.5 67.6C55.4 63.7 55.4 57.5 51.5 53.6L37.5 39.6L23.5 53.6C19.6 57.5 19.6 63.7 23.5 67.6C26.9 71 32.2 71.4 36.1 68.8L29.2 80.7H45.8L38.9 68.8C42.8 71.4 48.1 71 51.5 67.6Z" fill="#000066"/>
<path d="M17.2 31.4C18.4 30.2 18.4 28.2 17.2 27L12.8 22.6L8.4 27C7.2 28.2 7.2 30.2 8.4 31.4C9.5 32.5 11.1 32.6 12.3 31.8L10.2 35.5H15.4L13.3 31.8C14.5 32.5 16.1 32.4 17.2 31.4Z" fill="#000066"/>
<path d="M57.9 89C56.7 90.2 56.7 92.2 57.9 93.4L62.3 97.8L66.7 93.4C67.9 92.2 67.9 90.2 66.7 89C65.6 87.9 64 87.8 62.8 88.6L64.9 84.9H59.7L61.8 88.6C60.6 87.8 59 87.9 57.9 89Z" fill="#000066"/>
</svg>
