<svg width="75" height="120" viewBox="0 0 75 120" fill="none" xmlns="http://www.w3.org/2000/svg">
<path d="M0 115V5C0 2.2 2.2 0 5 0H70C72.8 0 75 2.2 75 5V115C75 117.8 72.8 120 70 120H5C2.2 120 0 117.8 0 115Z" fill="white"/>
<path d="M12.4 9L12.3 12.5C14.5 12.5 15.2 13.9 15.2 16.1C15.2 18.5 14.3 20 12.1 20C11.2 20 10.7 19.8 10.7 19.8V18.4H10.8C10.8 18.4 11.4 18.6 12 18.6C13 18.6 13.5 18 13.5 16.4C13.5 14.9 13 14 11.7 14C11.3 14 10.9 14.1 10.9 14.1H10.8L11 7.59998H14.8V9.09998H12.4V9Z" fill="#000066"/>
<path d="M62.7 111L62.8 107.5C60.6 107.5 59.9 106.1 59.9 103.9C59.9 101.5 60.8 100 63 100C63.9 100 64.4 100.2 64.4 100.2V101.6H64.3C64.3 101.6 63.7 101.4 63.1 101.4C62.1 101.4 61.6 102 61.6 103.6C61.6 105.1 62.1 106 63.4 106C63.8 106 64.2 105.9 64.2 105.9H64.3L64.1 112.4H60.3V111H62.7Z" fill="#000066"/>
<path d="M51.5 67.4C55.4 63.5 55.4 57.3 51.5 53.4L37.5 39.4L23.5 53.4C19.6 57.3 19.6 63.5 23.5 67.4C26.9 70.8 32.2 71.2 36.1 68.6L29.2 80.5H45.8L38.9 68.6C42.8 71.3 48.1 70.9 51.5 67.4Z" fill="#000066"/>
<path d="M17.2 31.2C18.4 30 18.4 28 17.2 26.8L12.8 22.4L8.4 26.8C7.2 28 7.2 30 8.4 31.2C9.5 32.3 11.1 32.4 12.3 31.6L10.2 35.3H15.4L13.3 31.6C14.5 32.4 16.1 32.2 17.2 31.2Z" fill="#000066"/>
<path d="M57.9 88.8C56.7 90 56.7 92 57.9 93.2L62.3 97.6L66.7 93.2C67.9 92 67.9 90 66.7 88.8C65.6 87.7 64 87.6 62.8 88.4L64.9 84.7H59.7L61.8 88.4C60.6 87.6 59 87.7 57.9 88.8Z" fill="#000066"/>
</svg>
