<svg width="75" height="121" viewBox="0 0 75 121" fill="none" xmlns="http://www.w3.org/2000/svg">
<path d="M0 115.6V5.60001C0 2.80001 2.2 0.600006 5 0.600006H70C72.8 0.600006 75 2.80001 75 5.60001V115.6C75 118.4 72.8 120.6 70 120.6H5C2.2 120.6 0 118.4 0 115.6Z" fill="white"/>
<path d="M10.5 9.60001V8.10001H15.1V9.29999L12.8 20.5H11.1L13.4 9.60001H10.5Z" fill="#000066"/>
<path d="M64.6 111.7V113.2H60V112L62.3 100.8H64L61.7 111.7H64.6V111.7Z" fill="#000066"/>
<path d="M51.5 68.1C55.4 64.2 55.4 58 51.5 54.1L37.5 40.1L23.5 54.1C19.6 58 19.6 64.2 23.5 68.1C26.9 71.5 32.2 71.9 36.1 69.3L29.2 81.2H45.8L38.9 69.3C42.8 71.9 48.1 71.5 51.5 68.1Z" fill="#000066"/>
<path d="M17.2 31.8C18.4 30.6 18.4 28.6 17.2 27.4L12.8 23L8.4 27.4C7.2 28.6 7.2 30.6 8.4 31.8C9.5 32.9 11.1 33 12.3 32.2L10.2 35.9H15.4L13.3 32.2C14.5 33 16.1 32.9 17.2 31.8Z" fill="#000066"/>
<path d="M57.9 89.4C56.7 90.6 56.7 92.6 57.9 93.8L62.3 98.2L66.7 93.8C67.9 92.6 67.9 90.6 66.7 89.4C65.6 88.3 64 88.2 62.8 89L64.9 85.3H59.7L61.8 89C60.6 88.2 59 88.4 57.9 89.4Z" fill="#000066"/>
</svg>
