<svg width="76" height="120" viewBox="0 0 76 120" fill="none" xmlns="http://www.w3.org/2000/svg">
<path d="M0.5 115V5C0.5 2.2 2.7 0 5.5 0H70.5C73.3 0 75.5 2.2 75.5 5V115C75.5 117.8 73.3 120 70.5 120H5.5C2.7 120 0.5 117.8 0.5 115Z" fill="white"/>
<path d="M14.9 19.9L14.4 16.4H12L11.5 19.9H10.1L12.3 6.40002H14.5L16.6 19.9H14.9ZM12.2 15H14.2L13.3 8.20002L12.2 15Z" fill="#000066"/>
<path d="M61.2 100.1L61.7 103.6H64.1L64.6 100.1H66L63.8 113.6H61.6L59.5 100.1H61.2ZM63.8 105H61.8L62.7 111.8L63.8 105Z" fill="#000066"/>
<path d="M17.6 31.2C18.8 30 18.8 28 17.6 26.8L13.2 22.4L8.79996 26.8C7.59996 28 7.59996 30 8.79996 31.2C9.89996 32.3 11.5 32.4 12.7 31.6L10.6 35.3H15.8L13.7 31.6C14.9 32.4 16.6 32.3 17.6 31.2Z" fill="#000066"/>
<path d="M58.4 88.8C57.2 90 57.2 92 58.4 93.2L62.8 97.6L67.2 93.2C68.4 92 68.4 90 67.2 88.8C66.1 87.7 64.5 87.6 63.3 88.4L65.4 84.7H60.2L62.3 88.4C61.1 87.6 59.4 87.7 58.4 88.8Z" fill="#000066"/>
<path d="M43.2 83.9L41.6 72.1H33.7L32 83.9H27.3L34.6 38.8H41.8L48.8 83.9H43.2ZM34.4 67.6H40.9L37.8 45L34.4 67.6Z" fill="#000066"/>
</svg>
