<svg width="76" height="121" viewBox="0 0 76 121" fill="none" xmlns="http://www.w3.org/2000/svg">
<path d="M0.5 115.5V5.5C0.5 2.7 2.7 0.5 5.5 0.5H70.5C73.3 0.5 75.5 2.7 75.5 5.5V115.5C75.5 118.3 73.3 120.5 70.5 120.5H5.5C2.7 120.5 0.5 118.3 0.5 115.5Z" fill="white"/>
<path d="M11.2 18.9C11.3 18.9 11.7 19.1 12.1 19.1C12.5 19.1 12.8 18.9 12.9 18.7C13.1 18.4 13.1 18 13.1 17.7V7H14.7V17.5C14.7 18.2 14.7 19 14.2 19.7C13.8 20.3 13.2 20.6 12.2 20.6C11.6 20.6 11.1 20.5 11.1 20.5V18.9H11.2Z" fill="#000066"/>
<path d="M64.9 102.1C64.8 102.1 64.4 101.9 64 101.9C63.6 101.9 63.3 102.1 63.2 102.3C63 102.6 63 103 63 103.3V114H61.4V103.5C61.4 102.8 61.4 102 61.9 101.3C62.3 100.7 62.9 100.4 63.9 100.4C64.5 100.4 65 100.5 65 100.5V102.1H64.9Z" fill="#000066"/>
<path d="M17.6 31.7C18.8 30.5 18.8 28.5 17.6 27.3L13.2 22.9L8.79996 27.3C7.59996 28.5 7.59996 30.5 8.79996 31.7C9.89996 32.8 11.5 32.9 12.7 32.1L10.6 35.8H15.8L13.7 32.1C14.9 32.9 16.6 32.8 17.6 31.7Z" fill="#000066"/>
<path d="M58.4 89.3C57.2 90.5 57.2 92.5 58.4 93.7L62.8 98.1L67.2 93.7C68.4 92.5 68.4 90.5 67.2 89.3C66.1 88.2 64.5 88.1 63.3 88.9L65.4 85.2H60.2L62.3 88.9C61.1 88.1 59.4 88.3 58.4 89.3Z" fill="#000066"/>
<path d="M30.8 79.3H31.1C31.1 79.3 32.6 79.8 33.9 79.8C35.3 79.8 36.1 79.3 36.6 78.4C37.1 77.4 37.1 76.2 37.1 75V39.3H42.6V74.4C42.6 76.7 42.6 79.4 41.1 81.6C39.8 83.5 37.7 84.7 34.4 84.7C32.3 84.7 30.8 84.2 30.8 84.2V79.3V79.3Z" fill="#000066"/>
</svg>
