<svg width="76" height="121" viewBox="0 0 76 121" fill="none" xmlns="http://www.w3.org/2000/svg">
<path d="M0.5 115.2V5.20001C0.5 2.40001 2.7 0.200012 5.5 0.200012H70.5C73.3 0.200012 75.5 2.40001 75.5 5.20001V115.2C75.5 118 73.3 120.2 70.5 120.2H5.5C2.7 120.2 0.5 117.9 0.5 115.2Z" fill="white"/>
<path d="M12.5 6.5V12.8L14.9 6.5H16.4L14 12.6L16.5 20.1H14.8L12.5 13V20.1H10.9V6.60001H12.5V6.5Z" fill="#000066"/>
<path d="M63.5 113.8V107.5L61.1 113.8H59.6L62 107.7L59.5 100.2H61.2L63.5 107.3V100.2H65.1V113.7H63.5V113.8Z" fill="#000066"/>
<path d="M17.6 31.4C18.8 30.2 18.8 28.2 17.6 27L13.2 22.6L8.79996 27C7.59996 28.2 7.59996 30.2 8.79996 31.4C9.89996 32.5 11.5 32.6 12.7 31.8L10.6 35.5H15.8L13.7 31.8C14.9 32.6 16.6 32.4 17.6 31.4Z" fill="#000066"/>
<path d="M58.4 89C57.2 90.2 57.2 92.2 58.4 93.4L62.8 97.8L67.2 93.4C68.4 92.2 68.4 90.2 67.2 89C66.1 87.9 64.5 87.8 63.3 88.6L65.4 84.9H60.2L62.3 88.6C61.1 87.8 59.4 87.9 58.4 89Z" fill="#000066"/>
<path d="M35.4 38.9V59.9L43.3 38.9H48.3L40.3 59.2L48.8 84H43L35.4 60.4V84H30V38.9H35.4Z" fill="#000066"/>
</svg>
