<svg width="75" height="120" viewBox="0 0 75 120" fill="none" xmlns="http://www.w3.org/2000/svg">
<path d="M0 115V5C0 2.2 2.2 0 5 0H70C72.8 0 75 2.2 75 5V115C75 117.8 72.8 120 70 120H5C2.2 120 0 117.8 0 115Z" fill="white"/>
<path d="M9.10001 19.9V9.1L7.7 9.6H7.60001V8.1L9.5 7.5H10.7V19.9H9.10001Z" fill="#000066"/>
<path d="M17.1 18.9C16.7 19.7 16 20.1 15 20.1C14.1 20.1 13.3 19.8 12.9 18.9C12.4 18 12.4 16.5 12.4 13.8C12.4 11.1 12.4 9.60002 12.9 8.60002C13.3 7.80002 14 7.40002 15 7.40002C15.9 7.40002 16.7 7.70002 17.1 8.60002C17.6 9.50002 17.6 11 17.6 13.7C17.6 16.4 17.6 17.9 17.1 18.9ZM15.7 9.30002C15.6 8.90002 15.3 8.70002 15 8.70002C14.7 8.70002 14.4 8.90002 14.3 9.30002C14.1 9.90002 14 10.7 14 13.7C14 16.7 14 17.5 14.3 18.1C14.5 18.5 14.7 18.7 15 18.7C15.3 18.7 15.6 18.5 15.8 18.1C16 17.5 16 16.4 16 13.6C16 10.8 16 9.90002 15.7 9.30002Z" fill="#000066"/>
<path d="M66 100.1V110.9L67.4 110.4H67.5V111.9L65.6 112.5H64.4V100.1H66V100.1Z" fill="#000066"/>
<path d="M58 101.1C58.4 100.3 59.1 99.9 60.1 99.9C61 99.9 61.8 100.2 62.2 101.1C62.7 102 62.7 103.5 62.7 106.2C62.7 108.9 62.7 110.4 62.2 111.4C61.8 112.2 61.1 112.6 60.1 112.6C59.2 112.6 58.4 112.3 58 111.4C57.5 110.5 57.5 109 57.5 106.3C57.5 103.6 57.5 102.1 58 101.1ZM59.3 110.7C59.4 111.1 59.7 111.3 60 111.3C60.3 111.3 60.6 111.1 60.7 110.7C60.9 110.1 61 109.3 61 106.3C61 103.3 61 102.5 60.7 101.9C60.5 101.5 60.3 101.3 60 101.3C59.7 101.3 59.4 101.5 59.2 101.9C59 102.5 59 103.6 59 106.4C59.1 109.2 59.1 110.1 59.3 110.7Z" fill="#000066"/>
<path d="M46.9 52.4C47.2 51.5 47.4 50.4 47.4 49.4C47.4 43.9 43 39.5 37.5 39.5C32 39.5 27.6 43.9 27.6 49.4C27.6 50.5 27.8 51.5 28.1 52.4C22.8 52.6 18.6 57 18.6 62.3C18.6 67.8 23 72.2 28.5 72.2C31.5 72.2 34.3 70.8 36.1 68.7L29.2 80.6H45.8L38.9 68.7C40.7 70.9 43.4 72.2 46.5 72.2C52 72.2 56.4 67.8 56.4 62.3C56.4 56.9 52.2 52.6 46.9 52.4Z" fill="#000066"/>
<path d="M15.4 26.1C15.5 25.8 15.5 25.6 15.5 25.3C15.5 23.8 14.3 22.5 12.7 22.5C11.2 22.5 9.89999 23.7 9.89999 25.3C9.89999 25.6 9.9 25.9 10 26.1C8.5 26.2 7.39999 27.4 7.39999 28.8C7.39999 30.3 8.6 31.6 10.2 31.6C11 31.6 11.8 31.2 12.3 30.6L10.4 33.9H15L13.1 30.6C13.6 31.2 14.4 31.6 15.2 31.6C16.7 31.6 18 30.4 18 28.8C18.1 27.4 16.9 26.2 15.4 26.1Z" fill="#000066"/>
<path d="M59.6 93.9C59.5 94.2 59.5 94.4 59.5 94.7C59.5 96.2 60.7 97.5 62.3 97.5C63.8 97.5 65.1 96.3 65.1 94.7C65.1 94.4 65.1 94.1 65 93.9C66.5 93.8 67.6 92.6 67.6 91.2C67.6 89.7 66.4 88.4 64.8 88.4C64 88.4 63.2 88.8 62.7 89.4L64.6 86.1H60L61.9 89.4C61.4 88.8 60.6 88.4 59.8 88.4C58.3 88.4 57 89.6 57 91.2C57 92.6 58.2 93.8 59.6 93.9Z" fill="#000066"/>
</svg>
