<svg width="75" height="121" viewBox="0 0 75 121" fill="none" xmlns="http://www.w3.org/2000/svg">
<path d="M0 115.2V5.19995C0 2.39995 2.2 0.199951 5 0.199951H70C72.8 0.199951 75 2.39995 75 5.19995V115.2C75 118 72.8 120.2 70 120.2H5C2.2 120.2 0 118 0 115.2Z" fill="white"/>
<path d="M15 20.1H10.4V18.9C11.8 15.9 13.2 13.5 13.2 10.9C13.2 9.60002 12.8 9.09998 11.9 9.09998C11.3 9.09998 10.6 9.40002 10.6 9.40002H10.5V8C10.5 8 11.1 7.69995 12.1 7.69995C14 7.69995 14.8 8.70005 14.8 10.8C14.8 13.7 13.1 16.3 12 18.7H14.8V20.1H15Z" fill="#000066"/>
<path d="M60.1 100.3H64.7V101.5C63.3 104.5 61.9 106.9 61.9 109.5C61.9 110.8 62.3 111.3 63.2 111.3C63.8 111.3 64.5 111 64.5 111H64.6V112.4C64.6 112.4 64 112.7 63 112.7C61.1 112.7 60.3 111.7 60.3 109.6C60.3 106.7 62 104.1 63.1 101.7H60.3V100.3H60.1Z" fill="#000066"/>
<path d="M46.9 52.6C47.2 51.7 47.4 50.6 47.4 49.6C47.4 44.1 43 39.7 37.5 39.7C32 39.7 27.6 44.1 27.6 49.6C27.6 50.7 27.8 51.7 28.1 52.6C22.8 52.8 18.6 57.2 18.6 62.5C18.6 68 23 72.4 28.5 72.4C31.5 72.4 34.3 71 36.1 68.9L29.2 80.8H45.8L38.9 68.9C40.7 71.1 43.4 72.4 46.5 72.4C52 72.4 56.4 68 56.4 62.5C56.4 57.2 52.2 52.8 46.9 52.6Z" fill="#000066"/>
<path d="M15.4 26.3C15.5 26 15.5 25.8 15.5 25.5C15.5 24 14.3 22.7 12.7 22.7C11.2 22.7 9.89999 23.9 9.89999 25.5C9.89999 25.8 9.9 26.1 10 26.3C8.5 26.4 7.39999 27.6 7.39999 29C7.39999 30.5 8.6 31.8 10.2 31.8C11 31.8 11.8 31.4 12.3 30.8L10.4 34.1H15L13.1 30.8C13.6 31.4 14.4 31.8 15.2 31.8C16.7 31.8 18 30.6 18 29C18.1 27.6 16.9 26.4 15.4 26.3Z" fill="#000066"/>
<path d="M59.6 94.1C59.5 94.4 59.5 94.6 59.5 94.9C59.5 96.4 60.7 97.7 62.3 97.7C63.8 97.7 65.1 96.5 65.1 94.9C65.1 94.6 65.1 94.3 65 94.1C66.5 94 67.6 92.8 67.6 91.4C67.6 89.9 66.4 88.6 64.8 88.6C64 88.6 63.2 89 62.7 89.6L64.6 86.3H60L61.9 89.6C61.4 89 60.6 88.6 59.8 88.6C58.3 88.6 57 89.8 57 91.4C57 92.9 58.2 94.1 59.6 94.1Z" fill="#000066"/>
</svg>
