<svg width="75" height="121" viewBox="0 0 75 121" fill="none" xmlns="http://www.w3.org/2000/svg">
<path d="M0 115.3V5.30005C0 2.50005 2.2 0.300049 5 0.300049H70C72.8 0.300049 75 2.50005 75 5.30005V115.3C75 118.1 72.8 120.3 70 120.3H5C2.2 120.3 0 118.1 0 115.3Z" fill="white"/>
<path d="M11.1 13.1H11.6C11.9 13.1 12.3 13.1 12.6 12.9C12.9 12.7 13.2 12.2 13.2 11C13.2 9.6 12.8 9.09998 12 9.09998C11.4 9.09998 10.8 9.30005 10.8 9.30005H10.7V7.90002C10.7 7.90002 11.3 7.69995 12.2 7.69995C14.1 7.69995 14.9 8.69995 14.9 10.7C14.9 12.4 14.3 13.3 13.3 13.6C14.4 13.8 15.1 14.8 15.1 16.8C15.1 18.9 14.3 20.3 12.1 20.3C11.2 20.3 10.7 20.1 10.7 20.1V18.7H10.8C10.8 18.7 11.4 18.9 12 18.9C13 18.9 13.4 18.3 13.4 16.8C13.4 15.6 13.1 15 12.7 14.7C12.4 14.5 12 14.5 11.7 14.5H11.1V13.1V13.1Z" fill="#000066"/>
<path d="M64 107.6H63.5C63.2 107.6 62.8 107.6 62.5 107.8C62.2 108 61.9 108.5 61.9 109.7C61.9 111.1 62.3 111.6 63.1 111.6C63.7 111.6 64.3 111.4 64.3 111.4H64.4V112.8C64.4 112.8 63.8 113 62.9 113C61 113 60.2 112 60.2 110C60.2 108.3 60.8 107.4 61.8 107.1C60.7 106.9 60 105.9 60 103.9C60 101.8 60.8 100.4 63 100.4C63.9 100.4 64.4 100.6 64.4 100.6V102H64.3C64.3 102 63.7 101.8 63.1 101.8C62.1 101.8 61.7 102.4 61.7 103.9C61.7 105.1 62 105.7 62.4 106C62.7 106.2 63.1 106.2 63.4 106.2H64V107.6V107.6Z" fill="#000066"/>
<path d="M46.9 52.7C47.2 51.8 47.4 50.7 47.4 49.7C47.4 44.2 43 39.8 37.5 39.8C32 39.8 27.6 44.2 27.6 49.7C27.6 50.8 27.8 51.8 28.1 52.7C22.8 52.9 18.6 57.3 18.6 62.6C18.6 68.1 23 72.5 28.5 72.5C31.5 72.5 34.3 71.1 36.1 69L29.2 80.9H45.8L38.9 69C40.7 71.2 43.4 72.5 46.5 72.5C52 72.5 56.4 68.1 56.4 62.6C56.4 57.3 52.2 52.9 46.9 52.7Z" fill="#000066"/>
<path d="M15.4 26.4C15.5 26.1 15.5 25.9 15.5 25.6C15.5 24.1 14.3 22.8 12.7 22.8C11.2 22.8 9.89999 24 9.89999 25.6C9.89999 25.9 9.9 26.2 10 26.4C8.5 26.5 7.39999 27.7 7.39999 29.1C7.39999 30.6 8.6 31.9 10.2 31.9C11 31.9 11.8 31.5 12.3 30.9L10.4 34.2H15L13.1 30.9C13.6 31.5 14.4 31.9 15.2 31.9C16.7 31.9 18 30.7 18 29.1C18.1 27.7 16.9 26.5 15.4 26.4Z" fill="#000066"/>
<path d="M59.6 94.3C59.5 94.6 59.5 94.8 59.5 95.1C59.5 96.6 60.7 97.9 62.3 97.9C63.8 97.9 65.1 96.7 65.1 95.1C65.1 94.8 65.1 94.5 65 94.3C66.5 94.2 67.6 93 67.6 91.6C67.6 90.1 66.4 88.8 64.8 88.8C64 88.8 63.2 89.2 62.7 89.8L64.6 86.5H60L61.9 89.8C61.4 89.2 60.6 88.8 59.8 88.8C58.3 88.8 57 90 57 91.6C57 93 58.2 94.2 59.6 94.3Z" fill="#000066"/>
</svg>
