<svg width="75" height="120" viewBox="0 0 75 120" fill="none" xmlns="http://www.w3.org/2000/svg">
<path d="M0 115V5C0 2.2 2.2 0 5 0H70C72.8 0 75 2.2 75 5V115C75 117.8 72.8 120 70 120H5C2.2 120 0 117.8 0 115Z" fill="white"/>
<path d="M12.4 9L12.3 12.5C14.5 12.5 15.2 13.9 15.2 16.1C15.2 18.5 14.3 20 12.1 20C11.2 20 10.7 19.8 10.7 19.8V18.4H10.8C10.8 18.4 11.4 18.6 12 18.6C13 18.6 13.5 18 13.5 16.4C13.5 14.9 13 14 11.7 14C11.3 14 10.9 14.1 10.9 14.1H10.8L11 7.59998H14.8V9.09998H12.4V9Z" fill="#000066"/>
<path d="M62.7 111L62.8 107.5C60.6 107.5 59.9 106.1 59.9 103.9C59.9 101.5 60.8 100 63 100C63.9 100 64.4 100.2 64.4 100.2V101.6H64.3C64.3 101.6 63.7 101.4 63.1 101.4C62.1 101.4 61.6 102 61.6 103.6C61.6 105.1 62.1 106 63.4 106C63.8 106 64.2 105.9 64.2 105.9H64.3L64.1 112.4H60.3V111H62.7Z" fill="#000066"/>
<path d="M46.9 52.3C47.2 51.4 47.4 50.3 47.4 49.3C47.4 43.8 43 39.4 37.5 39.4C32 39.4 27.6 43.8 27.6 49.3C27.6 50.4 27.8 51.4 28.1 52.3C22.8 52.5 18.6 56.9 18.6 62.2C18.6 67.7 23 72.1 28.5 72.1C31.5 72.1 34.3 70.7 36.1 68.6L29.2 80.5H45.8L38.9 68.6C40.7 70.8 43.4 72.1 46.5 72.1C52 72.1 56.4 67.7 56.4 62.2C56.4 56.9 52.2 52.6 46.9 52.3Z" fill="#000066"/>
<path d="M15.4 26.1C15.5 25.8 15.5 25.6 15.5 25.3C15.5 23.8 14.3 22.5 12.7 22.5C11.2 22.5 9.89999 23.7 9.89999 25.3C9.89999 25.6 9.9 25.9 10 26.1C8.5 26.2 7.39999 27.4 7.39999 28.8C7.39999 30.3 8.6 31.6 10.2 31.6C11 31.6 11.8 31.2 12.3 30.6L10.4 33.9H15L13.1 30.6C13.6 31.2 14.4 31.6 15.2 31.6C16.7 31.6 18 30.4 18 28.8C18.1 27.3 16.9 26.1 15.4 26.1Z" fill="#000066"/>
<path d="M59.6 93.9C59.5 94.2 59.5 94.4 59.5 94.7C59.5 96.2 60.7 97.5 62.3 97.5C63.8 97.5 65.1 96.3 65.1 94.7C65.1 94.4 65.1 94.1 65 93.9C66.5 93.8 67.6 92.6 67.6 91.2C67.6 89.7 66.4 88.4 64.8 88.4C64 88.4 63.2 88.8 62.7 89.4L64.6 86.1H60L61.9 89.4C61.4 88.8 60.6 88.4 59.8 88.4C58.3 88.4 57 89.6 57 91.2C57 92.6 58.2 93.8 59.6 93.9Z" fill="#000066"/>
</svg>
