<svg width="75" height="121" viewBox="0 0 75 121" fill="none" xmlns="http://www.w3.org/2000/svg">
<path d="M0 115.8V5.79999C0 2.99999 2.2 0.799988 5 0.799988H70C72.8 0.799988 75 2.99999 75 5.79999V115.8C75 118.6 72.8 120.8 70 120.8H5C2.2 120.8 0 118.6 0 115.8Z" fill="white"/>
<path d="M12.9 20.8C12.1 20.8 11.4 20.6 10.9 19.8C10.4 19.1 10.3 17.8 10.3 15.1C10.3 10.6 10.8 8.20001 13.7 8.20001C14.5 8.20001 15.1 8.40002 15.1 8.40002V9.79999H15C15 9.79999 14.4 9.59998 13.8 9.59998C12.3 9.59998 12 10.8 12 14C12.2 13.2 12.7 12.9 13.5 12.9C15.2 12.9 15.6 14.5 15.6 16.7C15.5 19 15 20.8 12.9 20.8ZM12 16.9C12 18.6 12.1 19.5 13 19.5C13.8 19.5 14 18.6 14 16.9C14 15.2 13.9 14.3 13 14.3C12.1 14.3 12 15.2 12 16.9Z" fill="#000066"/>
<path d="M62.2 100.8C63 100.8 63.7 101 64.2 101.8C64.7 102.6 64.8 103.8 64.8 106.5C64.8 111 64.3 113.4 61.4 113.4C60.6 113.4 60 113.2 60 113.2V111.8H60.1C60.1 111.8 60.7 112 61.3 112C62.8 112 63.1 110.8 63.1 107.6C62.9 108.4 62.4 108.7 61.6 108.7C59.9 108.7 59.5 107.1 59.5 104.9C59.5 102.6 60 100.8 62.2 100.8ZM63.1 104.7C63.1 103 63 102.1 62.1 102.1C61.3 102.1 61.1 103 61.1 104.7C61.1 106.4 61.2 107.3 62.1 107.3C63 107.3 63.1 106.4 63.1 104.7Z" fill="#000066"/>
<path d="M46.9 53.2C47.2 52.3 47.4 51.2 47.4 50.2C47.4 44.7 43 40.3 37.5 40.3C32 40.3 27.6 44.7 27.6 50.2C27.6 51.3 27.8 52.3 28.1 53.2C22.8 53.4 18.6 57.8 18.6 63.1C18.6 68.6 23 73 28.5 73C31.5 73 34.3 71.6 36.1 69.5L29.2 81.4H45.8L38.9 69.5C40.7 71.7 43.4 73 46.5 73C52 73 56.4 68.6 56.4 63.1C56.4 57.7 52.2 53.4 46.9 53.2Z" fill="#000066"/>
<path d="M15.4 26.9C15.5 26.6 15.5 26.4 15.5 26.1C15.5 24.6 14.3 23.3 12.7 23.3C11.2 23.3 9.89999 24.5 9.89999 26.1C9.89999 26.4 9.9 26.7 10 26.9C8.5 27 7.39999 28.2 7.39999 29.6C7.39999 31.1 8.6 32.4 10.2 32.4C11 32.4 11.8 32 12.3 31.4L10.4 34.7H15L13.1 31.4C13.6 32 14.4 32.4 15.2 32.4C16.7 32.4 18 31.2 18 29.6C18.1 28.2 16.9 27 15.4 26.9Z" fill="#000066"/>
<path d="M59.6 94.7C59.5 95 59.5 95.2 59.5 95.5C59.5 97 60.7 98.3 62.3 98.3C63.8 98.3 65.1 97.1 65.1 95.5C65.1 95.2 65.1 94.9 65 94.7C66.5 94.6 67.6 93.4 67.6 92C67.6 90.5 66.4 89.2 64.8 89.2C64 89.2 63.2 89.6 62.7 90.2L64.6 86.9H60L61.9 90.2C61.4 89.6 60.6 89.2 59.8 89.2C58.3 89.2 57 90.4 57 92C57 93.5 58.2 94.7 59.6 94.7Z" fill="#000066"/>
</svg>
