<svg width="75" height="121" viewBox="0 0 75 121" fill="none" xmlns="http://www.w3.org/2000/svg">
<path d="M0 115.6V5.60001C0 2.80001 2.2 0.600006 5 0.600006H70C72.8 0.600006 75 2.80001 75 5.60001V115.6C75 118.4 72.8 120.6 70 120.6H5C2.2 120.6 0 118.4 0 115.6Z" fill="white"/>
<path d="M10.5 9.60001V8.10001H15.1V9.29999L12.8 20.5H11.1L13.4 9.60001H10.5Z" fill="#000066"/>
<path d="M64.6 111.7V113.2H60V112L62.3 100.8H64L61.7 111.7H64.6V111.7Z" fill="#000066"/>
<path d="M46.9 53C47.2 52.1 47.4 51 47.4 50C47.4 44.5 43 40.1 37.5 40.1C32 40.1 27.6 44.5 27.6 50C27.6 51.1 27.8 52.1 28.1 53C22.8 53.2 18.6 57.6 18.6 62.9C18.6 68.4 23 72.8 28.5 72.8C31.5 72.8 34.3 71.4 36.1 69.3L29.2 81.2H45.8L38.9 69.3C40.7 71.5 43.4 72.8 46.5 72.8C52 72.8 56.4 68.4 56.4 62.9C56.4 57.6 52.2 53.2 46.9 53Z" fill="#000066"/>
<path d="M15.4 26.7C15.5 26.4 15.5 26.2 15.5 25.9C15.5 24.4 14.3 23.1 12.7 23.1C11.2 23.1 9.89999 24.3 9.89999 25.9C9.89999 26.2 9.9 26.5 10 26.7C8.5 26.8 7.39999 28 7.39999 29.4C7.39999 30.9 8.6 32.2 10.2 32.2C11 32.2 11.8 31.8 12.3 31.2L10.4 34.5H15L13.1 31.2C13.6 31.8 14.4 32.2 15.2 32.2C16.7 32.2 18 31 18 29.4C18.1 28 16.9 26.8 15.4 26.7Z" fill="#000066"/>
<path d="M59.6 94.5C59.5 94.8 59.5 95 59.5 95.3C59.5 96.8 60.7 98.1 62.3 98.1C63.8 98.1 65.1 96.9 65.1 95.3C65.1 95 65.1 94.7 65 94.5C66.5 94.4 67.6 93.2 67.6 91.8C67.6 90.3 66.4 89 64.8 89C64 89 63.2 89.4 62.7 90L64.6 86.7H60L61.9 90C61.4 89.4 60.6 89 59.8 89C58.3 89 57 90.2 57 91.8C57 93.3 58.2 94.5 59.6 94.5Z" fill="#000066"/>
</svg>
