<svg width="75" height="121" viewBox="0 0 75 121" fill="none" xmlns="http://www.w3.org/2000/svg">
<path d="M0 115.2V5.20001C0 2.40001 2.2 0.200012 5 0.200012H70C72.8 0.200012 75 2.40001 75 5.20001V115.2C75 118 72.8 120.2 70 120.2H5C2.2 120.2 0 117.9 0 115.2Z" fill="white"/>
<path d="M12.7 7.60004C13.5 7.60004 14.2 7.80004 14.7 8.60004C15.2 9.30004 15.3 10.6 15.3 13.3C15.3 17.8 14.8 20.2 11.9 20.2C11.1 20.2 10.5 20 10.5 20V18.6H10.6C10.6 18.6 11.2 18.8 11.8 18.8C13.3 18.8 13.6 17.6 13.6 14.4C13.3 15.2 12.8 15.5 12.1 15.5C10.5 15.5 10 13.9 10 11.7C10.1 9.40003 10.6 7.60004 12.7 7.60004ZM13.7 11.5C13.7 9.80003 13.6 8.90002 12.7 8.90002C11.9 8.90002 11.7 9.80003 11.7 11.5C11.7 13.2 11.8 14.1 12.7 14.1C13.6 14.1 13.7 13.2 13.7 11.5Z" fill="#000066"/>
<path d="M62.3 112.8C61.5 112.8 60.8 112.6 60.3 111.8C59.8 111.1 59.7 109.8 59.7 107.1C59.7 102.6 60.2 100.2 63.1 100.2C63.9 100.2 64.5 100.4 64.5 100.4V101.8H64.4C64.4 101.8 63.8 101.6 63.2 101.6C61.7 101.6 61.4 102.8 61.4 106C61.7 105.2 62.2 104.9 62.9 104.9C64.5 104.9 65 106.5 65 108.7C65 111 64.4 112.8 62.3 112.8ZM61.4 108.9C61.4 110.6 61.5 111.5 62.4 111.5C63.2 111.5 63.4 110.6 63.4 108.9C63.4 107.2 63.3 106.3 62.4 106.3C61.5 106.3 61.4 107.1 61.4 108.9Z" fill="#000066"/>
<path d="M46.9 52.5C47.2 51.6 47.4 50.5 47.4 49.5C47.4 44 43 39.6 37.5 39.6C32 39.6 27.6 44 27.6 49.5C27.6 50.6 27.8 51.6 28.1 52.5C22.8 52.7 18.6 57.1 18.6 62.4C18.6 67.9 23 72.3 28.5 72.3C31.5 72.3 34.3 70.9 36.1 68.8L29.2 80.7H45.8L38.9 68.8C40.7 71 43.4 72.3 46.5 72.3C52 72.3 56.4 67.9 56.4 62.4C56.4 57.1 52.2 52.8 46.9 52.5Z" fill="#000066"/>
<path d="M15.4 26.3C15.5 26 15.5 25.8 15.5 25.5C15.5 24 14.3 22.7 12.7 22.7C11.2 22.7 9.89999 23.9 9.89999 25.5C9.89999 25.8 9.9 26.1 10 26.3C8.5 26.4 7.39999 27.6 7.39999 29C7.39999 30.5 8.6 31.8 10.2 31.8C11 31.8 11.8 31.4 12.3 30.8L10.4 34.1H15L13.1 30.8C13.6 31.4 14.4 31.8 15.2 31.8C16.7 31.8 18 30.6 18 29C18.1 27.5 16.9 26.3 15.4 26.3Z" fill="#000066"/>
<path d="M59.6 94.1C59.5 94.4 59.5 94.6 59.5 94.9C59.5 96.4 60.7 97.7 62.3 97.7C63.8 97.7 65.1 96.5 65.1 94.9C65.1 94.6 65.1 94.3 65 94.1C66.5 94 67.6 92.8 67.6 91.4C67.6 89.9 66.4 88.6 64.8 88.6C64 88.6 63.2 89 62.7 89.6L64.6 86.3H60L61.9 89.6C61.4 89 60.6 88.6 59.8 88.6C58.3 88.6 57 89.8 57 91.4C57 92.8 58.2 94 59.6 94.1Z" fill="#000066"/>
</svg>
