<svg width="76" height="120" viewBox="0 0 76 120" fill="none" xmlns="http://www.w3.org/2000/svg">
<path d="M0.5 115V5C0.5 2.2 2.7 0 5.5 0H70.5C73.3 0 75.5 2.2 75.5 5V115C75.5 117.8 73.3 120 70.5 120H5.5C2.7 120 0.5 117.8 0.5 115Z" fill="white"/>
<path d="M43.2 83.9L41.6 72.1H33.7L32 83.9H27.3L34.6 38.8H41.8L48.8 83.9H43.2ZM34.4 67.6H40.9L37.8 45L34.4 67.6Z" fill="#000066"/>
<path d="M14.9 19.9L14.4 16.4H12L11.5 19.9H10.1L12.3 6.40002H14.5L16.6 19.9H14.9ZM12.2 15H14.2L13.3 8.20002L12.2 15Z" fill="#000066"/>
<path d="M61.2 100.1L61.7 103.6H64.1L64.6 100.1H66L63.8 113.6H61.6L59.5 100.1H61.2ZM63.8 105H61.8L62.7 111.8L63.8 105Z" fill="#000066"/>
<path d="M15.9 26.1C16 25.8 16 25.6 16 25.3C16 23.8 14.8 22.5 13.2 22.5C11.7 22.5 10.4 23.7 10.4 25.3C10.4 25.6 10.4 25.9 10.5 26.1C9 26.2 7.90002 27.4 7.90002 28.8C7.90002 30.3 9.10001 31.6 10.7 31.6C11.5 31.6 12.3 31.2 12.8 30.6L10.9 33.9H15.5L13.6 30.6C14.1 31.2 14.9 31.6 15.7 31.6C17.2 31.6 18.5 30.4 18.5 28.8C18.6 27.4 17.4 26.2 15.9 26.1Z" fill="#000066"/>
<path d="M60.1 93.9C60 94.2 60 94.4 60 94.7C60 96.2 61.2 97.5 62.8 97.5C64.3 97.5 65.6 96.3 65.6 94.7C65.6 94.4 65.6 94.1 65.5 93.9C67 93.8 68.1 92.6 68.1 91.2C68.1 89.7 66.9 88.4 65.3 88.4C64.5 88.4 63.7 88.8 63.2 89.4L65.1 86.1H60.5L62.4 89.4C61.9 88.8 61.1 88.4 60.3 88.4C58.8 88.4 57.5 89.6 57.5 91.2C57.5 92.6 58.7 93.8 60.1 93.9Z" fill="#000066"/>
</svg>
