<svg width="76" height="121" viewBox="0 0 76 121" fill="none" xmlns="http://www.w3.org/2000/svg">
<path d="M0.5 115.5V5.5C0.5 2.7 2.7 0.5 5.5 0.5H70.5C73.3 0.5 75.5 2.7 75.5 5.5V115.5C75.5 118.3 73.3 120.5 70.5 120.5H5.5C2.7 120.5 0.5 118.3 0.5 115.5Z" fill="white"/>
<path d="M30.8 79.3H31.1C31.1 79.3 32.6 79.8 33.9 79.8C35.3 79.8 36.1 79.3 36.6 78.4C37.1 77.4 37.1 76.2 37.1 75V39.3H42.6V74.4C42.6 76.7 42.6 79.4 41.1 81.6C39.8 83.5 37.7 84.7 34.4 84.7C32.3 84.7 30.8 84.2 30.8 84.2V79.3V79.3Z" fill="#000066"/>
<path d="M11.2 18.9C11.3 18.9 11.7 19.1 12.1 19.1C12.5 19.1 12.8 18.9 12.9 18.7C13.1 18.4 13.1 18 13.1 17.7V7H14.7V17.5C14.7 18.2 14.7 19 14.2 19.7C13.8 20.3 13.2 20.6 12.2 20.6C11.6 20.6 11.1 20.5 11.1 20.5V18.9H11.2Z" fill="#000066"/>
<path d="M64.9 102.1C64.8 102.1 64.4 101.9 64 101.9C63.6 101.9 63.3 102.1 63.2 102.3C63 102.6 63 103 63 103.3V114H61.4V103.5C61.4 102.8 61.4 102 61.9 101.3C62.3 100.7 62.9 100.4 63.9 100.4C64.5 100.4 65 100.5 65 100.5V102.1H64.9Z" fill="#000066"/>
<path d="M15.9 26.6C16 26.3 16 26.1 16 25.8C16 24.3 14.8 23 13.2 23C11.7 23 10.4 24.2 10.4 25.8C10.4 26.1 10.4 26.4 10.5 26.6C9 26.7 7.90002 27.9 7.90002 29.3C7.90002 30.8 9.10001 32.1 10.7 32.1C11.5 32.1 12.3 31.7 12.8 31.1L10.9 34.4H15.5L13.6 31.1C14.1 31.7 14.9 32.1 15.7 32.1C17.2 32.1 18.5 30.9 18.5 29.3C18.6 27.9 17.4 26.7 15.9 26.6Z" fill="#000066"/>
<path d="M60.1 94.4C60 94.7 60 94.9 60 95.2C60 96.7 61.2 98 62.8 98C64.3 98 65.6 96.8 65.6 95.2C65.6 94.9 65.6 94.6 65.5 94.4C67 94.3 68.1 93.1 68.1 91.7C68.1 90.2 66.9 88.9 65.3 88.9C64.5 88.9 63.7 89.3 63.2 89.9L65.1 86.6H60.5L62.4 89.9C61.9 89.3 61.1 88.9 60.3 88.9C58.8 88.9 57.5 90.1 57.5 91.7C57.5 93.2 58.7 94.4 60.1 94.4Z" fill="#000066"/>
</svg>
