<svg width="76" height="121" viewBox="0 0 76 121" fill="none" xmlns="http://www.w3.org/2000/svg">
<path d="M0.5 115.2V5.20001C0.5 2.40001 2.7 0.200012 5.5 0.200012H70.5C73.3 0.200012 75.5 2.40001 75.5 5.20001V115.2C75.5 118 73.3 120.2 70.5 120.2H5.5C2.7 120.2 0.5 117.9 0.5 115.2Z" fill="white"/>
<path d="M35.4 38.9V59.9L43.3 38.9H48.3L40.3 59.2L48.8 84H43L35.4 60.4V84H30V38.9H35.4Z" fill="#000066"/>
<path d="M12.5 6.5V12.8L14.9 6.5H16.4L14 12.6L16.5 20.1H14.8L12.5 13V20.1H10.9V6.60001H12.5V6.5Z" fill="#000066"/>
<path d="M63.5 113.8V107.5L61.1 113.8H59.6L62 107.7L59.5 100.2H61.2L63.5 107.3V100.2H65.1V113.7H63.5V113.8Z" fill="#000066"/>
<path d="M15.9 26.3C16 26 16 25.8 16 25.5C16 24 14.8 22.7 13.2 22.7C11.7 22.7 10.4 23.9 10.4 25.5C10.4 25.8 10.4 26.1 10.5 26.3C9 26.4 7.90002 27.6 7.90002 29C7.90002 30.5 9.10001 31.8 10.7 31.8C11.5 31.8 12.3 31.4 12.8 30.8L10.9 34.1H15.5L13.6 30.8C14.1 31.4 14.9 31.8 15.7 31.8C17.2 31.8 18.5 30.6 18.5 29C18.6 27.5 17.4 26.3 15.9 26.3Z" fill="#000066"/>
<path d="M60.1 94.1C60 94.4 60 94.6 60 94.9C60 96.4 61.2 97.7 62.8 97.7C64.3 97.7 65.6 96.5 65.6 94.9C65.6 94.6 65.6 94.3 65.5 94.1C67 94 68.1 92.8 68.1 91.4C68.1 89.9 66.9 88.6 65.3 88.6C64.5 88.6 63.7 89 63.2 89.6L65.1 86.3H60.5L62.4 89.6C61.9 89 61.1 88.6 60.3 88.6C58.8 88.6 57.5 89.8 57.5 91.4C57.5 92.8 58.7 94 60.1 94.1Z" fill="#000066"/>
</svg>
